<?xml version="1.0" encoding="UTF-8"?>
<svg xmlns="http://www.w3.org/2000/svg" version="1.1" viewBox="0 0 32 32">
  <defs>
    <style>
      .cls-1 {
        fill: #ffca28;
      }

      .cls-2 {
        fill: #eda600;
      }
    </style>
  </defs>
  <!-- Generator: Adobe Illustrator 28.6.0, SVG Export Plug-In . SVG Version: 1.2.0 Build 709)  -->
  <g>
    <g id="Layer_1">
      <g>
        <path class="cls-1" d="M6.2,22.1c.1.8.4,1.6.7,2.4s.8,1.6,1.4,2.3,1.4,1.3,2.3,1.7,2.1.6,3.5.6c1.3,0,2.3-.2,3.1-.6s1.5-.8,2-1.3.9-1,1.2-1.6.6-1,.8-1.5c.5-1.1,1-2,1.5-2.8s1.1-1.5,1.5-1.9.8-.7,1.2-1,.8-.6,1.2-.8.5-.5.6-.6c0-.3,0-.6-.1-.8s-.4-.4-.8-.5-.6-.2-1-.2c-.3,0-.7,0-1.2.2s-1.1.4-1.6.8-1.1.9-1.5,1.5h-.1c0,.2-.1.2-.2.2s-.1-.2-.1-.4,0-.3,0-.8,0-1.1,0-1.9,0-1.6,0-2.4,0-1.7,0-2.5c0-.8,0-1.5,0-2s0-.9,0-1.1c0-.8,0-1.4-.3-1.9s-.5-.8-.9-.9c-.3,0-.6,0-.8,0s-.4.2-.5.3l-.2.2h0c0-.9-.2-1.4-.4-1.7s-.5-.5-.9-.5c-.5,0-.9,0-1.2.4s-.6,1-.8,1.8c-.1.5-.3,1.2-.4,2s-.3,1.6-.4,2.5c-.1.9-.3,1.7-.4,2.4-.1.8-.2,1.4-.3,1.9,0,.5-.1.8-.1.8,0,.1,0,.2,0,.3s-.1.2-.3.2-.2,0-.3-.2-.2-.2-.2-.3c0,0,0-.3-.2-.7-.1-.4-.3-.9-.5-1.5s-.4-1.2-.6-1.9-.4-1.3-.6-1.8-.4-1-.5-1.3c-.2-.6-.5-1-.7-1.3s-.5-.3-.7-.4-.4,0-.6,0c-.3,0-.6.3-.7.6s-.2.7-.2,1.2c0,.3,0,.5.1.8s0,.5.1.7h-.3c0,0,0,0-.2-.2s-.3-.3-.4-.5c-.2-.1-.4-.2-.7-.2-.2,0-.4.1-.6.3-.2.1-.4.4-.5.7s-.1.8,0,1.3c0,.2,0,.6.2,1.2s.2,1.3.3,2c.1.8.2,1.6.3,2.4s.2,1.7.3,2.5.2,1.5.3,2.1.2,1,.2,1.3Z"/>
        <path class="cls-2" d="M14.4,22.4c-.2.6-.3,1.2-.3,1.6s0,.7,0,.9v.3c0,0,.1,0,.2-.3s.1-.4.2-.6.1-.5.2-.7c0-.3.2-.6.4-1s.5-.9.9-1.3.9-.9,1.5-1.3,1.4-.8,2.4-1c.2,0,.4-.1.7-.2s.5-.3.6-.4h-.3c-.2,0-.3-.3-.3-.5l-.8.2c-.5.1-1.1.3-1.8.6-.8.3-1.5.8-2.2,1.5s-1.2,1.5-1.5,2.6Z"/>
        <path class="cls-2" d="M8,26.5l.3.3c.2.2.4.5.8.8s.8.6,1.4.9,1.3.5,2.1.6,1.7.1,2.8,0c1-.2,2-.5,2.9-1s1.7-1.3,2.4-2.4c.6-.9,1-1.7,1.4-2.3s.7-1.2.9-1.7.6-1,.9-1.4c.3-.4.7-.8,1.3-1.2s1-.7,1.4-1.1c.4-.3.6-.6.7-.8s.2-.4.2-.5v-.2s0,0-.2.3-.5.4-.9.8c-.3.2-.6.4-1.1.6s-.9.6-1.3.9c-.5.4-1,.9-1.3,1.5s-.7,1.1-.9,1.6-.5,1-.8,1.5c-.2.3-.4.7-.7,1.2s-.6.9-1,1.3-.9.8-1.5,1.2-1.4.6-2.2.8c-1.1.2-2,.2-2.9,0s-1.7-.4-2.3-.7-1.2-.6-1.5-.9-.6-.4-.6-.4Z"/>
        <path class="cls-2" d="M8.8,16.8c0,0,.2,0,.5-.2s.4-.2.5-.3.1-.2.1-.3,0-.1,0-.2c0,0-.2-.1-.2-.2,0,0-.1-.2-.2-.3-.1-.4-.3-.9-.5-1.6-.2-.6-.4-1.3-.6-1.9s-.4-1.2-.6-1.7l-.3-.8c0-.1-.1-.3-.3-.5-.1-.2-.3-.4-.5-.5-.2-.1-.5-.2-.8-.1l.3.3c.2.2.4.6.6,1.2,0,.2.2.6.3,1.1s.3,1.1.5,1.7c.2.6.3,1.2.5,1.7s.3,1,.4,1.4c0,.1,0,.3,0,.5s0,.3,0,.4c0,.2,0,.2.3.2Z"/>
        <path class="cls-2" d="M16.8,15.7c.3.1.6.2.8.1s.3-.1.3-.2c0-.2,0-.3,0-.4s-.1-.2-.1-.4c0-.4,0-1,.1-1.8s.1-1.6.2-2.5.1-1.7.2-2.6c0-.8.1-1.5.2-2.1s0-.9,0-1.1c0-.6,0-1-.2-1.3s-.3-.5-.5-.5h-.2c0-.1,0,0,.2.3s.2.7.2,1.2,0,.7-.1,1.3-.1,1.3-.2,2.2-.2,1.7-.3,2.5-.2,1.6-.3,2.4c0,.7-.2,1.3-.2,1.7,0,.1,0,.2-.1.3s-.1.2-.2.2c0,.1,0,.3,0,.4s.2.2.4.2Z"/>
        <path class="cls-2" d="M21.2,18.1v-.6c0-.4,0-.9,0-1.6v-4.6c0-.8,0-1.6,0-2.3s0-1.3,0-1.8c0-.5,0-.8,0-1,0-.6-.2-1-.4-1.2s-.4-.4-.7-.4-.3,0-.3,0c0,0,0,0,.2.2s.2.3.3.5.2.6.2,1.1c0,.2,0,.7,0,1.4s0,1.5,0,2.4c0,.9,0,1.8,0,2.8s0,1.9,0,2.7,0,1.5,0,2v.8s.9,0,.9,0Z"/>
      </g>
    </g>
  </g>
</svg>